<svg width="53" height="53" viewBox="0 0 53 53" fill="none" xmlns="http://www.w3.org/2000/svg">
<g clip-path="url(#clip0)">
<path d="M9.74372 33.8276C11.3393 33.8276 12.6327 32.5341 12.6327 30.9385C12.6327 29.343 11.3393 28.0495 9.74372 28.0495C8.14816 28.0495 6.85471 29.343 6.85471 30.9385C6.85471 32.5341 8.14816 33.8276 9.74372 33.8276Z" fill="#04D361"/>
<path d="M17.3076 33.9326C18.9032 33.9326 20.1966 32.6392 20.1966 31.0436C20.1966 29.4481 18.9032 28.1546 17.3076 28.1546C15.7121 28.1546 14.4186 29.4481 14.4186 31.0436C14.4186 32.6392 15.7121 33.9326 17.3076 33.9326Z" fill="#04D361"/>
<path d="M13.7126 40.1025C15.3082 40.1025 16.6016 38.809 16.6016 37.2135C16.6016 35.6179 15.3082 34.3244 13.7126 34.3244C12.1171 34.3244 10.8236 35.6179 10.8236 37.2135C10.8236 38.809 12.1171 40.1025 13.7126 40.1025Z" fill="#04D361"/>
<path d="M13.8409 27.3142C15.4364 27.3142 16.7299 26.0207 16.7299 24.4251C16.7299 22.8296 15.4364 21.5361 13.8409 21.5361C12.2453 21.5361 10.9519 22.8296 10.9519 24.4251C10.9519 26.0207 12.2453 27.3142 13.8409 27.3142Z" fill="#04D361"/>
<path d="M34.1174 34.4579C35.713 34.4579 37.0064 33.1644 37.0064 31.5688C37.0064 29.9733 35.713 28.6798 34.1174 28.6798C32.5219 28.6798 31.2284 29.9733 31.2284 31.5688C31.2284 33.1644 32.5219 34.4579 34.1174 34.4579Z" fill="#04D361"/>
<path d="M41.5774 33.8276C43.1729 33.8276 44.4664 32.5341 44.4664 30.9385C44.4664 29.343 43.1729 28.0495 41.5774 28.0495C39.9818 28.0495 38.6883 29.343 38.6883 30.9385C38.6883 32.5341 39.9818 33.8276 41.5774 33.8276Z" fill="#04D361"/>
<path d="M38.9279 40.9429C40.5234 40.9429 41.8169 39.6495 41.8169 38.0539C41.8169 36.4583 40.5234 35.1649 38.9279 35.1649C37.3323 35.1649 36.0389 36.4583 36.0389 38.0539C36.0389 39.6495 37.3323 40.9429 38.9279 40.9429Z" fill="#04D361"/>
<path d="M45.2312 27.3142C46.8267 27.3142 48.1202 26.0207 48.1202 24.4251C48.1202 22.8296 46.8267 21.5361 45.2312 21.5361C43.6356 21.5361 42.3421 22.8296 42.3421 24.4251C42.3421 26.0207 43.6356 27.3142 45.2312 27.3142Z" fill="#04D361"/>
<path d="M37.6904 27.3142C39.2859 27.3142 40.5794 26.0207 40.5794 24.4251C40.5794 22.8296 39.2859 21.5361 37.6904 21.5361C36.0948 21.5361 34.8013 22.8296 34.8013 24.4251C34.8013 26.0207 36.0948 27.3142 37.6904 27.3142Z" fill="#04D361"/>
<path d="M41.4723 20.3795C43.0679 20.3795 44.3613 19.0861 44.3613 17.4905C44.3613 15.895 43.0679 14.6015 41.4723 14.6015C39.8767 14.6015 38.5833 15.895 38.5833 17.4905C38.5833 19.0861 39.8767 20.3795 41.4723 20.3795Z" fill="#04D361"/>
<path d="M50.1372 23.6373H50.1228C49.9353 17.8811 47.6988 12.4812 43.7609 8.27856L43.7711 8.26841C44.0788 7.96056 44.0788 7.46182 43.7711 7.15407C43.4632 6.84642 42.9645 6.84642 42.6567 7.15407L42.6466 7.16421C38.4438 3.22637 33.0441 0.989609 27.2879 0.80235V0.787857C27.2879 0.352574 26.9352 0 26.5 0C26.0647 0 25.712 0.352678 25.712 0.787857V0.802246C19.9557 0.989609 14.556 3.22637 10.3532 7.16411L10.3431 7.15396C10.0352 6.84632 9.53648 6.84632 9.22873 7.15396C8.92098 7.46182 8.92098 7.96056 9.22873 8.26831L9.23888 8.27845C5.30104 12.4813 3.06427 17.8811 2.87701 23.6373H2.86263C2.42734 23.6373 2.07477 23.99 2.07477 24.4251C2.07477 24.8604 2.42745 25.213 2.86263 25.213H2.87701C3.06438 30.9693 5.30104 36.3691 9.23888 40.5717L9.22873 40.5818C8.92098 40.8897 8.92098 41.3884 9.22873 41.6962C9.38266 41.85 9.58431 41.9269 9.78596 41.9269C9.98761 41.9269 10.1893 41.85 10.3432 41.6962L10.3533 41.6861C14.7474 45.8033 20.4497 48.0623 26.5 48.0623C32.5503 48.0623 38.2527 45.8032 42.6467 41.6862L42.6568 41.6963C42.8108 41.8501 43.0124 41.927 43.2141 41.927C43.4157 41.927 43.6173 41.8501 43.7713 41.6963C44.079 41.3884 44.079 40.8897 43.7713 40.582L43.7611 40.5718C47.699 36.3691 49.9356 30.9692 50.123 25.2131H50.1374C50.5727 25.2131 50.9253 24.8604 50.9253 24.4252C50.9252 23.99 50.5725 23.6373 50.1372 23.6373ZM48.5459 23.6373H28.4021L42.6386 9.40077C46.1438 13.1635 48.3519 18.1482 48.5459 23.6373ZM27.2879 2.37931C32.7771 2.57298 37.7617 4.78139 41.5244 8.28643L27.2879 22.5229V2.37931ZM25.712 2.37931V22.5228L11.4755 8.28653C15.2381 4.78139 20.2228 2.57309 25.712 2.37931ZM10.3612 9.40077L24.5977 23.6373H4.45397C4.64786 18.148 6.85605 13.1635 10.3612 9.40077ZM4.45397 25.2131H24.5976L10.3612 39.4496C6.85605 35.6869 4.64786 30.7023 4.45397 25.2131ZM26.4999 46.4866C20.7003 46.4866 15.4175 44.2361 11.4755 40.5638L26.4999 25.5395L41.5243 40.5638C37.5823 44.2361 32.2995 46.4866 26.4999 46.4866ZM42.6386 39.4496L28.4021 25.2131H48.5458C48.3519 30.7022 46.1438 35.6869 42.6386 39.4496Z" fill="#494D4B"/>
<path d="M30.8922 22.6762C30.1954 20.9326 28.4893 19.6978 26.4999 19.6978C24.5105 19.6978 22.8044 20.9328 22.1076 22.6764C10.0785 52.7796 10.7417 50.9718 10.7417 51.4242C10.7417 52.2944 11.4473 53 12.3175 53H40.6823C41.5525 53 42.2581 52.2944 42.2581 51.4242C42.2581 50.9717 42.9202 52.7765 30.8922 22.6762Z" fill="#9F75FF"/>
<path d="M28.8153 20.3053C27.8383 21.1612 27.4562 22.5709 27.9656 23.8455C30.9733 31.3723 33.1875 36.9042 34.8172 40.9755C35.9712 43.8586 36.8475 46.0481 37.5025 47.6891C37.9155 48.724 37.153 49.8484 36.0387 49.8484H11.2511C10.5814 51.5655 10.7673 51.1982 10.7382 51.4854C10.6541 52.3199 11.2469 53 12.0856 53H40.9014C41.7422 53 42.3407 52.3177 42.2609 51.4808C42.1968 50.8083 43.3368 53.8198 30.892 22.6762C30.4899 21.6695 29.7507 20.8331 28.8153 20.3053Z" fill="#6F48C9"/>
<path d="M32.9867 38.5234C31.6385 35.1545 29.9445 30.9203 27.8169 25.5956C27.6554 25.1915 27.1971 24.9952 26.7928 25.1563C26.3888 25.3177 26.192 25.7762 26.3535 26.1803C28.4813 31.5054 30.1753 35.7397 31.5237 39.1088C31.6469 39.417 31.9428 39.6042 32.2555 39.6042C32.353 39.6042 32.452 39.586 32.5479 39.5476C32.9519 39.3859 33.1484 38.9275 32.9867 38.5234Z" fill="#494D4B"/>
<path d="M26.4999 26.001C25.631 26.001 24.9241 25.294 24.9241 24.4251C24.9241 24.2786 24.9437 24.1347 24.9827 23.9973C24.9904 23.9698 24.9992 23.9419 25.0086 23.9149C25.0153 23.8954 25.0196 23.884 25.024 23.8723L25.034 23.8467C25.2327 23.3498 25.7627 22.8493 26.4999 22.8493C27.2371 22.8493 27.7672 23.3498 27.9654 23.8457C28.0384 24.0287 28.0757 24.2238 28.0757 24.4251C28.0757 25.294 27.3688 26.001 26.4999 26.001Z" fill="white"/>
<path d="M33.3545 43.0328C32.7709 43.0328 32.2187 42.6831 31.9887 42.1081L31.5181 40.9327L30.8899 39.3629C30.5879 38.6087 30.9546 37.7528 31.7088 37.4509C31.8879 37.3791 32.0731 37.3451 32.2548 37.3451C32.8385 37.3451 33.3906 37.6949 33.6206 38.2698L34.249 39.8395L34.7196 41.0151C35.0215 41.7692 34.6549 42.6252 33.9006 42.927C33.7215 42.9988 33.5364 43.0328 33.3545 43.0328Z" fill="white"/>
</g>
<defs>
<clipPath id="clip0">
<rect width="53" height="53" fill="white"/>
</clipPath>
</defs>
</svg>
